<svg id="svg" xmlns="http://www.w3.org/2000/svg" xmlns:xlink="http://www.w3.org/1999/xlink" width="400" height="400" viewBox="0, 0, 400,400"><g id="svgg"><path id="path0" d="M172.365 1.830 C 11.088 24.417,-56.450 222.623,57.341 339.394 C 167.561 452.500,360.369 397.745,394.814 243.556 C 424.994 108.462,309.226 -17.338,172.365 1.830 M159.692 71.171 C 189.841 81.664,204.075 103.819,205.800 142.938 L 206.733 164.099 188.255 162.836 C 131.008 158.924,108.648 135.013,108.480 77.530 L 108.444 65.282 128.444 66.269 C 142.358 66.956,151.867 68.447,159.692 71.171 M117.987 88.635 C 121.706 133.225,138.043 148.581,187.389 153.867 L 197.889 154.992 196.752 138.976 C 193.744 96.603,168.951 74.768,123.744 74.680 L 116.822 74.667 117.987 88.635 M252.187 126.978 C 262.064 132.085,264.430 147.158,256.782 156.248 C 243.586 171.930,218.001 157.989,223.892 138.326 C 227.423 126.540,240.893 121.138,252.187 126.978 M232.240 131.685 C 225.720 136.813,225.553 149.271,231.919 155.636 C 241.684 165.401,257.778 157.958,257.778 143.677 C 257.778 130.011,243.118 123.128,232.240 131.685 M250.896 135.421 C 252.996 138.733,252.823 139.812,249.693 142.942 C 247.603 145.032,247.389 146.532,248.804 149.174 C 251.053 153.376,251.143 154.667,249.189 154.667 C 248.377 154.667,246.642 152.667,245.333 150.222 C 244.025 147.778,241.890 145.778,240.588 145.778 C 239.250 145.778,238.222 147.708,238.222 150.222 C 238.222 152.667,237.422 154.667,236.444 154.667 C 235.438 154.667,234.667 149.552,234.667 142.877 L 234.667 131.087 242.034 132.076 C 246.086 132.619,250.074 134.124,250.896 135.421 M238.222 138.543 C 238.222 141.310,239.356 142.222,242.797 142.222 C 248.632 142.222,248.113 136.275,242.204 135.432 C 239.180 135.000,238.222 135.749,238.222 138.543 M268.412 188.428 C 290.735 199.816,299.142 238.215,284.382 261.375 C 277.586 272.039,272.811 276.324,250.667 291.630 C 223.328 310.527,215.030 318.130,207.276 331.389 L 200.335 343.257 195.202 333.851 C 187.924 320.515,176.484 309.599,152.891 293.481 C 118.520 269.999,109.692 257.987,109.665 234.667 C 109.642 215.229,120.243 194.484,133.547 187.930 C 143.527 183.014,258.633 183.439,268.412 188.428 M135.631 197.452 C 132.222 199.658,127.819 205.364,124.683 211.639 C 109.874 241.276,117.500 258.301,158.038 286.096 C 169.552 293.990,183.703 305.448,189.486 311.558 L 200.000 322.667 211.556 310.958 C 217.911 304.518,230.711 294.192,240.000 288.010 C 265.233 271.218,272.997 264.172,278.373 253.184 C 286.718 236.127,282.476 213.292,268.493 200.000 L 262.882 194.667 202.108 194.214 C 143.210 193.776,141.157 193.876,135.631 197.452 " stroke="none" fill="#000000" fill-rule="evenodd"></path></g></svg>